<?xml version="1.0" encoding="UTF-8"?>
<svg xmlns="http://www.w3.org/2000/svg" viewBox="0 0 220 220" shape-rendering="crispEdges">
  <rect width="220" height="220" fill="#ffffff"/>
  <rect x="10" y="10" width="60" height="60" fill="#000000"/>
  <rect x="20" y="20" width="40" height="40" fill="#ffffff"/>
  <rect x="30" y="30" width="20" height="20" fill="#000000"/>
  <rect x="150" y="10" width="60" height="60" fill="#000000"/>
  <rect x="160" y="20" width="40" height="40" fill="#ffffff"/>
  <rect x="170" y="30" width="20" height="20" fill="#000000"/>
  <rect x="10" y="150" width="60" height="60" fill="#000000"/>
  <rect x="20" y="160" width="40" height="40" fill="#ffffff"/>
  <rect x="30" y="170" width="20" height="20" fill="#000000"/>
  <rect x="90" y="10" width="20" height="20" fill="#000000"/>
  <rect x="120" y="10" width="20" height="20" fill="#000000"/>
  <rect x="90" y="40" width="20" height="20" fill="#000000"/>
  <rect x="120" y="40" width="20" height="20" fill="#000000"/>
  <rect x="90" y="70" width="20" height="20" fill="#000000"/>
  <rect x="120" y="70" width="20" height="20" fill="#000000"/>
  <rect x="90" y="100" width="20" height="20" fill="#000000"/>
  <rect x="120" y="100" width="20" height="20" fill="#000000"/>
  <rect x="10" y="90" width="20" height="20" fill="#000000"/>
  <rect x="10" y="120" width="20" height="20" fill="#000000"/>
  <rect x="40" y="90" width="20" height="20" fill="#000000"/>
  <rect x="40" y="120" width="20" height="20" fill="#000000"/>
  <rect x="170" y="90" width="20" height="20" fill="#000000"/>
  <rect x="170" y="120" width="20" height="20" fill="#000000"/>
  <rect x="150" y="90" width="20" height="20" fill="#000000"/>
  <rect x="150" y="120" width="20" height="20" fill="#000000"/>
  <rect x="80" y="150" width="20" height="20" fill="#000000"/>
  <rect x="110" y="150" width="20" height="20" fill="#000000"/>
  <rect x="80" y="180" width="20" height="20" fill="#000000"/>
  <rect x="110" y="180" width="20" height="20" fill="#000000"/>
</svg>
